STARTFONT 2.1
COMMENT
COMMENT  Copyright (c) 1999, Thomas A. Fine
COMMENT
COMMENT  License to copy and distribute for both commercial and
COMMENT  non-commercial use is herby granted, provided this notice
COMMENT  is preserved.
COMMENT
COMMENT  Email to my last name at head.cfa.harvard.edu
COMMENT  http://hea-www.harvard.edu/~fine/
COMMENT
COMMENT  Produced with bdfedit, a tcl/tk font editing program
COMMENT  written by Thomas A. Fine
COMMENT
FONT Shadow
SIZE 13 72 72
FONTBOUNDINGBOX 12 18 0 -4
STARTPROPERTIES 10
FOUNDRY "Fine"
FAMILY_NAME ""
WEIGHT_NAME "Medium"
SLANT "R"
SETWIDTH_NAME "Normal"
SPACING "c"
CHARSET_REGISTRY "ISO-8859"
CHARSET_ENCODING "1"
FONT_ASCENT  14
FONT_DESCENT 4
ENDPROPERTIES
CHARS 156
STARTCHAR C040
ENCODING 32
SWIDTH 923 0
DWIDTH 12 0
BBX 12 18 0 -4
BITMAP
0000
0000
0000
0000
0000
0000
0000
0000
0000
0000
0000
0000
0000
0000
0000
0000
0000
0000
ENDCHAR
STARTCHAR C041
ENCODING 33
SWIDTH 923 0
DWIDTH 12 0
BBX 12 18 0 -4
BITMAP
0000
0800
0800
0800
0800
0800
0800
0800
0800
0e00
0000
0800
0800
0e00
0000
0000
0000
0000
ENDCHAR
STARTCHAR C042
ENCODING 34
SWIDTH 923 0
DWIDTH 12 0
BBX 12 18 0 -4
BITMAP
0000
4200
4200
4200
7380
0000
0000
0000
0000
0000
0000
0000
0000
0000
0000
0000
0000
0000
ENDCHAR
STARTCHAR C043
ENCODING 35
SWIDTH 923 0
DWIDTH 12 0
BBX 12 18 0 -4
BITMAP
2100
2100
2100
8000
8000
e730
2100
2100
2100
8000
8000
e730
2100
2100
39c0
0000
0000
0000
ENDCHAR
STARTCHAR C044
ENCODING 36
SWIDTH 923 0
DWIDTH 12 0
BBX 12 18 0 -4
BITMAP
0800
0000
0000
8800
9940
8880
8000
6000
1800
0900
0900
8000
4040
3980
0800
0e00
0000
0000
ENDCHAR
STARTCHAR C045
ENCODING 37
SWIDTH 923 0
DWIDTH 12 0
BBX 12 18 0 -4
BITMAP
0000
4100
8100
b200
9200
8200
7400
0400
0400
0880
0900
0960
1120
1100
1ce0
0000
0000
0000
ENDCHAR
STARTCHAR C046
ENCODING 38
SWIDTH 923 0
DWIDTH 12 0
BBX 12 18 0 -4
BITMAP
2000
4000
4c00
4400
4000
2100
4000
8c00
9210
8220
8400
8000
4080
3f70
0000
0000
0000
0000
ENDCHAR
STARTCHAR C047
ENCODING 39
SWIDTH 923 0
DWIDTH 12 0
BBX 12 18 0 -4
BITMAP
0000
0800
0800
0c00
0400
0100
0e00
0000
0000
0000
0000
0000
0000
0000
0000
0000
0000
0000
ENDCHAR
STARTCHAR C050
ENCODING 40
SWIDTH 923 0
DWIDTH 12 0
BBX 12 18 0 -4
BITMAP
0000
0000
0800
1100
1200
2000
2000
2000
2000
2000
1000
1000
0800
0700
0000
0000
0000
0000
ENDCHAR
STARTCHAR C051
ENCODING 41
SWIDTH 923 0
DWIDTH 12 0
BBX 12 18 0 -4
BITMAP
0000
0000
0000
0800
0400
0200
0200
0200
0200
0200
0400
0000
0100
0e00
0000
0000
0000
0000
ENDCHAR
STARTCHAR C052
ENCODING 42
SWIDTH 923 0
DWIDTH 12 0
BBX 12 18 0 -4
BITMAP
0000
0000
0400
0800
0800
0000
0000
c030
2040
0000
0400
0a00
1100
2080
0000
0000
0000
0000
ENDCHAR
STARTCHAR C053
ENCODING 43
SWIDTH 923 0
DWIDTH 12 0
BBX 12 18 0 -4
BITMAP
0000
0000
0000
0000
0800
0800
0800
4000
4000
79c0
0800
0800
0e00
0000
0000
0000
0000
0000
ENDCHAR
STARTCHAR C054
ENCODING 44
SWIDTH 923 0
DWIDTH 12 0
BBX 12 18 0 -4
BITMAP
0000
0000
0000
0000
0000
0000
0000
0000
0000
0000
0000
0800
0800
0c00
0400
0100
0e00
0000
ENDCHAR
STARTCHAR C055
ENCODING 45
SWIDTH 923 0
DWIDTH 12 0
BBX 12 18 0 -4
BITMAP
0000
0000
0000
0000
0000
0000
0000
4000
4000
7fc0
0000
0000
0000
0000
0000
0000
0000
0000
ENDCHAR
STARTCHAR C056
ENCODING 46
SWIDTH 923 0
DWIDTH 12 0
BBX 12 18 0 -4
BITMAP
0000
0000
0000
0000
0000
0000
0000
0000
0000
0000
0000
0800
0800
0e00
0000
0000
0000
0000
ENDCHAR
STARTCHAR C057
ENCODING 47
SWIDTH 923 0
DWIDTH 12 0
BBX 12 18 0 -4
BITMAP
0000
0100
0100
0200
0200
0200
0400
0400
0400
0800
0800
0800
1000
1000
1c00
0000
0000
0000
ENDCHAR
STARTCHAR C060
ENCODING 48
SWIDTH 923 0
DWIDTH 12 0
BBX 12 18 0 -4
BITMAP
0000
0000
2000
4600
4900
4100
4100
4100
4100
4100
4100
4000
2040
1f80
0000
0000
0000
0000
ENDCHAR
STARTCHAR C061
ENCODING 49
SWIDTH 923 0
DWIDTH 12 0
BBX 12 18 0 -4
BITMAP
0000
1000
2000
2000
3800
0800
0800
0800
0800
0800
0800
2000
2000
3f80
0000
0000
0000
0000
ENDCHAR
STARTCHAR C062
ENCODING 50
SWIDTH 923 0
DWIDTH 12 0
BBX 12 18 0 -4
BITMAP
0000
0000
8000
5c00
6200
0200
0000
0080
0100
0600
0800
8000
8000
ffc0
0000
0000
0000
0000
ENDCHAR
STARTCHAR C063
ENCODING 51
SWIDTH 923 0
DWIDTH 12 0
BBX 12 18 0 -4
BITMAP
0000
0000
4000
2e00
3100
0100
0800
0800
0e00
0100
2100
4000
7040
0f80
0000
0000
0000
0000
ENDCHAR
STARTCHAR C064
ENCODING 52
SWIDTH 923 0
DWIDTH 12 0
BBX 12 18 0 -4
BITMAP
0000
0400
0400
8400
8400
8400
8400
8000
8000
fce0
0400
0400
0400
0700
0000
0000
0000
0000
ENDCHAR
STARTCHAR C065
ENCODING 53
SWIDTH 923 0
DWIDTH 12 0
BBX 12 18 0 -4
BITMAP
0000
8000
8000
9fc0
8000
8000
8000
bc00
c200
0100
4100
8000
c040
3f80
0000
0000
0000
0000
ENDCHAR
STARTCHAR C066
ENCODING 54
SWIDTH 923 0
DWIDTH 12 0
BBX 12 18 0 -4
BITMAP
0000
0400
0800
1000
2000
4000
4000
8c00
9200
8200
8000
4000
2080
1f00
0000
0000
0000
0000
ENDCHAR
STARTCHAR C067
ENCODING 55
SWIDTH 923 0
DWIDTH 12 0
BBX 12 18 0 -4
BITMAP
0000
8000
8000
fe00
0020
0040
0080
1100
1000
1000
1000
1000
1000
1e00
0000
0000
0000
0000
ENDCHAR
STARTCHAR C070
ENCODING 56
SWIDTH 923 0
DWIDTH 12 0
BBX 12 18 0 -4
BITMAP
0000
0000
4000
8e00
9100
8100
4000
0000
8e00
9100
8100
8000
4040
3f80
0000
0000
0000
0000
ENDCHAR
STARTCHAR C071
ENCODING 57
SWIDTH 923 0
DWIDTH 12 0
BBX 12 18 0 -4
BITMAP
0000
0000
0000
4e00
9100
8100
8200
4000
2100
1f00
0200
0000
4040
3f80
0000
0000
0000
0000
ENDCHAR
STARTCHAR C072
ENCODING 58
SWIDTH 923 0
DWIDTH 12 0
BBX 12 18 0 -4
BITMAP
0000
0000
0000
0000
0800
0800
0e00
0000
0000
0000
0000
0800
0800
0e00
0000
0000
0000
0000
ENDCHAR
STARTCHAR C073
ENCODING 59
SWIDTH 923 0
DWIDTH 12 0
BBX 12 18 0 -4
BITMAP
0000
0000
0000
0000
0800
0800
0e00
0000
0000
0000
0000
0800
0800
0c00
0400
0100
0e00
0000
ENDCHAR
STARTCHAR C074
ENCODING 60
SWIDTH 923 0
DWIDTH 12 0
BBX 12 18 0 -4
BITMAP
0000
0000
0000
00c0
0300
0c00
0000
c000
3000
0c00
0300
00c0
0000
0000
0000
0000
0000
0000
ENDCHAR
STARTCHAR C075
ENCODING 61
SWIDTH 923 0
DWIDTH 12 0
BBX 12 18 0 -4
BITMAP
0000
0000
0000
0000
4000
4000
7fc0
0000
0000
4000
4000
7fc0
0000
0000
0000
0000
0000
0000
ENDCHAR
STARTCHAR C076
ENCODING 62
SWIDTH 923 0
DWIDTH 12 0
BBX 12 18 0 -4
BITMAP
0000
0000
0000
3000
0c00
0300
0000
0030
00c0
0300
0c00
3000
0000
0000
0000
0000
0000
0000
ENDCHAR
STARTCHAR C077
ENCODING 63
SWIDTH 923 0
DWIDTH 12 0
BBX 12 18 0 -4
BITMAP
0000
0000
4000
2e00
3100
0100
0000
0840
0980
0e00
0000
0800
0800
0e00
0000
0000
0000
0000
ENDCHAR
STARTCHAR C100
ENCODING 64
SWIDTH 923 0
DWIDTH 12 0
BBX 12 18 0 -4
BITMAP
0000
0000
2000
4f00
5080
8040
8440
8840
8880
8820
47c0
4000
2000
1fc0
0000
0000
0000
0000
ENDCHAR
STARTCHAR C101
ENCODING 65
SWIDTH 923 0
DWIDTH 12 0
BBX 12 18 0 -4
BITMAP
0000
0400
0400
0800
0800
1000
1200
2300
2000
4000
4f00
8080
8080
e0e0
0000
0000
0000
0000
ENDCHAR
STARTCHAR C102
ENCODING 66
SWIDTH 923 0
DWIDTH 12 0
BBX 12 18 0 -4
BITMAP
0000
8000
8000
9e00
8100
8100
8000
8000
9e00
8100
8100
8000
8040
ff80
0000
0000
0000
0000
ENDCHAR
STARTCHAR C103
ENCODING 67
SWIDTH 923 0
DWIDTH 12 0
BBX 12 18 0 -4
BITMAP
0000
0000
2000
4700
48e0
9000
8000
8000
8000
8000
4000
4000
2040
1f80
0000
0000
0000
0000
ENDCHAR
STARTCHAR C104
ENCODING 68
SWIDTH 923 0
DWIDTH 12 0
BBX 12 18 0 -4
BITMAP
0000
8000
8000
9e00
8100
8080
8080
8080
8080
8080
8100
8000
8080
ff00
0000
0000
0000
0000
ENDCHAR
STARTCHAR C105
ENCODING 69
SWIDTH 923 0
DWIDTH 12 0
BBX 12 18 0 -4
BITMAP
0000
8000
8000
9fe0
8000
8000
8000
9f00
8000
8000
8000
8000
8000
ffe0
0000
0000
0000
0000
ENDCHAR
STARTCHAR C106
ENCODING 70
SWIDTH 923 0
DWIDTH 12 0
BBX 12 18 0 -4
BITMAP
0000
8000
8000
9fe0
8000
8000
8000
9f00
8000
8000
8000
8000
8000
e000
0000
0000
0000
0000
ENDCHAR
STARTCHAR C107
ENCODING 71
SWIDTH 923 0
DWIDTH 12 0
BBX 12 18 0 -4
BITMAP
0000
0000
2000
4700
48e0
8000
8000
8000
8400
8400
4700
4000
20c0
1f40
0000
0000
0000
0000
ENDCHAR
STARTCHAR C110
ENCODING 72
SWIDTH 923 0
DWIDTH 12 0
BBX 12 18 0 -4
BITMAP
0000
8080
8080
8080
8080
8080
8000
8000
9f80
8080
8080
8080
8080
e0e0
0000
0000
0000
0000
ENDCHAR
STARTCHAR C111
ENCODING 73
SWIDTH 923 0
DWIDTH 12 0
BBX 12 18 0 -4
BITMAP
0000
4000
4000
79c0
0800
0800
0800
0800
0800
0800
0800
4000
4000
7fc0
0000
0000
0000
0000
ENDCHAR
STARTCHAR C112
ENCODING 74
SWIDTH 923 0
DWIDTH 12 0
BBX 12 18 0 -4
BITMAP
0000
1000
1000
1cc0
0400
0400
0400
0400
0400
0400
4000
4000
2080
1f00
0000
0000
0000
0000
ENDCHAR
STARTCHAR C113
ENCODING 75
SWIDTH 923 0
DWIDTH 12 0
BBX 12 18 0 -4
BITMAP
0000
8080
8100
8200
8400
8800
9000
8000
8000
8400
8200
8100
8080
e060
0000
0000
0000
0000
ENDCHAR
STARTCHAR C114
ENCODING 76
SWIDTH 923 0
DWIDTH 12 0
BBX 12 18 0 -4
BITMAP
0000
8000
8000
8000
8000
8000
8000
8000
8000
8000
8000
8000
8000
ffe0
0000
0000
0000
0000
ENDCHAR
STARTCHAR C115
ENCODING 77
SWIDTH 923 0
DWIDTH 12 0
BBX 12 18 0 -4
BITMAP
0000
8200
8200
8400
8080
9080
9080
8880
8880
8c80
8080
8080
8080
e0e0
0000
0000
0000
0000
ENDCHAR
STARTCHAR C116
ENCODING 78
SWIDTH 923 0
DWIDTH 12 0
BBX 12 18 0 -4
BITMAP
0000
8080
8080
8080
9080
9080
8880
8880
8480
8400
8200
8200
8100
e0e0
0000
0000
0000
0000
ENDCHAR
STARTCHAR C117
ENCODING 79
SWIDTH 923 0
DWIDTH 12 0
BBX 12 18 0 -4
BITMAP
0000
0000
2000
4600
4900
9080
8080
8080
8080
8080
4100
4000
2040
1f80
0000
0000
0000
0000
ENDCHAR
STARTCHAR C120
ENCODING 80
SWIDTH 923 0
DWIDTH 12 0
BBX 12 18 0 -4
BITMAP
0000
8000
8000
9e00
8100
8100
8000
8080
9f00
8000
8000
8000
8000
e000
0000
0000
0000
0000
ENDCHAR
STARTCHAR C121
ENCODING 81
SWIDTH 923 0
DWIDTH 12 0
BBX 12 18 0 -4
BITMAP
0000
0000
2000
4600
4900
9080
8080
8080
8000
8200
4100
4000
2000
1fa0
0040
0000
0000
0000
ENDCHAR
STARTCHAR C122
ENCODING 82
SWIDTH 923 0
DWIDTH 12 0
BBX 12 18 0 -4
BITMAP
0000
8000
8000
9e00
8100
8100
8000
8080
9c00
8200
8200
8100
8100
e0c0
0000
0000
0000
0000
ENDCHAR
STARTCHAR C123
ENCODING 83
SWIDTH 923 0
DWIDTH 12 0
BBX 12 18 0 -4
BITMAP
0000
0000
4000
8e00
9140
8080
4000
3c00
0200
0100
0200
8000
4040
3f80
0000
0000
0000
0000
ENDCHAR
STARTCHAR C124
ENCODING 84
SWIDTH 923 0
DWIDTH 12 0
BBX 12 18 0 -4
BITMAP
0000
8000
8000
f9e0
0800
0800
0800
0800
0800
0800
0800
0800
0800
0e00
0000
0000
0000
0000
ENDCHAR
STARTCHAR C125
ENCODING 85
SWIDTH 923 0
DWIDTH 12 0
BBX 12 18 0 -4
BITMAP
0000
0000
8080
8080
8080
8080
8080
8080
8080
8080
4100
4000
2040
1f80
0000
0000
0000
0000
ENDCHAR
STARTCHAR C126
ENCODING 86
SWIDTH 923 0
DWIDTH 12 0
BBX 12 18 0 -4
BITMAP
0000
8080
8080
8080
4100
4100
4100
2200
2200
2200
1000
1000
1000
0e00
0000
0000
0000
0000
ENDCHAR
STARTCHAR C127
ENCODING 87
SWIDTH 923 0
DWIDTH 12 0
BBX 12 18 0 -4
BITMAP
0000
8080
8080
8080
8080
8880
8880
9080
9000
8200
8200
8100
8100
e0e0
0000
0000
0000
0000
ENDCHAR
STARTCHAR C130
ENCODING 88
SWIDTH 923 0
DWIDTH 12 0
BBX 12 18 0 -4
BITMAP
0000
8080
8100
4100
2200
2000
1000
0800
1000
2000
2200
4100
8100
e0e0
0000
0000
0000
0000
ENDCHAR
STARTCHAR C131
ENCODING 89
SWIDTH 923 0
DWIDTH 12 0
BBX 12 18 0 -4
BITMAP
0000
8080
8100
4100
2200
2000
1000
0800
0800
0800
0800
0800
0800
0e00
0000
0000
0000
0000
ENDCHAR
STARTCHAR C132
ENCODING 90
SWIDTH 923 0
DWIDTH 12 0
BBX 12 18 0 -4
BITMAP
0000
8000
8000
fe00
0020
0040
0180
0200
0400
1800
8000
8000
8000
ffe0
0000
0000
0000
0000
ENDCHAR
STARTCHAR C133
ENCODING 91
SWIDTH 923 0
DWIDTH 12 0
BBX 12 18 0 -4
BITMAP
1000
1000
1380
1000
1000
1000
1000
1000
1000
1000
1000
1000
1000
1000
1f80
0000
0000
0000
ENDCHAR
STARTCHAR C134
ENCODING 92
SWIDTH 923 0
DWIDTH 12 0
BBX 12 18 0 -4
BITMAP
0000
2000
2000
1000
1000
1000
0800
0800
0800
0400
0400
0400
0200
0200
0380
0000
0000
0000
ENDCHAR
STARTCHAR C135
ENCODING 93
SWIDTH 923 0
DWIDTH 12 0
BBX 12 18 0 -4
BITMAP
1000
1000
1e00
0200
0200
0200
0200
0200
0200
0200
0200
0200
1000
1000
1f80
0000
0000
0000
ENDCHAR
STARTCHAR C136
ENCODING 94
SWIDTH 923 0
DWIDTH 12 0
BBX 12 18 0 -4
BITMAP
0000
0000
0200
4500
28a0
1040
0000
0000
0000
0000
0000
0000
0000
0000
0000
0000
0000
0000
ENDCHAR
STARTCHAR C137
ENCODING 95
SWIDTH 923 0
DWIDTH 12 0
BBX 12 18 0 -4
BITMAP
0000
0000
0000
0000
0000
0000
0000
0000
0000
0000
0000
0000
0000
8000
8000
ffe0
0000
0000
ENDCHAR
STARTCHAR C140
ENCODING 96
SWIDTH 923 0
DWIDTH 12 0
BBX 12 18 0 -4
BITMAP
0000
0900
1200
1000
1000
1e00
0000
0000
0000
0000
0000
0000
0000
0000
0000
0000
0000
0000
ENDCHAR
STARTCHAR C141
ENCODING 97
SWIDTH 923 0
DWIDTH 12 0
BBX 12 18 0 -4
BITMAP
0000
0000
0000
8000
8000
fc00
0200
4000
8000
9e00
8200
8000
4200
3dc0
0000
0000
0000
0000
ENDCHAR
STARTCHAR C142
ENCODING 98
SWIDTH 923 0
DWIDTH 12 0
BBX 12 18 0 -4
BITMAP
0000
0000
8000
8000
8000
8000
8e00
9100
8100
8100
8200
8000
9080
ef00
0000
0000
0000
0000
ENDCHAR
STARTCHAR C143
ENCODING 99
SWIDTH 923 0
DWIDTH 12 0
BBX 12 18 0 -4
BITMAP
0000
0000
0000
0000
0000
0040
0e80
9100
8000
8000
8000
4000
2080
1f00
0000
0000
0000
0000
ENDCHAR
STARTCHAR C144
ENCODING 100
SWIDTH 923 0
DWIDTH 12 0
BBX 12 18 0 -4
BITMAP
0000
0000
0100
0100
0100
0000
0e00
9100
8100
8100
8200
4000
2100
1ec0
0000
0000
0000
0000
ENDCHAR
STARTCHAR C145
ENCODING 101
SWIDTH 923 0
DWIDTH 12 0
BBX 12 18 0 -4
BITMAP
0000
0000
0000
0000
0000
4e00
9100
8000
8000
9fc0
8000
4000
2080
1f00
0000
0000
0000
0000
ENDCHAR
STARTCHAR C146
ENCODING 102
SWIDTH 923 0
DWIDTH 12 0
BBX 12 18 0 -4
BITMAP
0000
0000
0800
1000
1340
1080
1000
1000
8000
8000
f380
1000
1000
1c00
0000
0000
0000
0000
ENDCHAR
STARTCHAR C147
ENCODING 103
SWIDTH 923 0
DWIDTH 12 0
BBX 12 18 0 -4
BITMAP
0000
0000
0000
0000
0000
0000
0e00
9100
8100
8100
8200
4000
2100
1f00
0200
0000
4040
3f80
ENDCHAR
STARTCHAR C150
ENCODING 104
SWIDTH 923 0
DWIDTH 12 0
BBX 12 18 0 -4
BITMAP
0000
0000
8000
8000
8000
8000
8e00
9100
8100
8100
8100
8100
8100
e1c0
0000
0000
0000
0000
ENDCHAR
STARTCHAR C151
ENCODING 105
SWIDTH 923 0
DWIDTH 12 0
BBX 12 18 0 -4
BITMAP
0000
0000
0800
0800
0e00
0000
0000
0800
0800
0800
0800
0800
0800
0e00
0000
0000
0000
0000
ENDCHAR
STARTCHAR C152
ENCODING 106
SWIDTH 923 0
DWIDTH 12 0
BBX 12 18 0 -4
BITMAP
0000
0000
0400
0400
0700
0000
0000
0400
0400
0400
0400
0400
0400
0400
4000
4000
2080
1f00
ENDCHAR
STARTCHAR C153
ENCODING 107
SWIDTH 923 0
DWIDTH 12 0
BBX 12 18 0 -4
BITMAP
0000
0000
8000
8000
8200
8400
8800
9000
8000
8000
8800
8400
8200
e1c0
0000
0000
0000
0000
ENDCHAR
STARTCHAR C154
ENCODING 108
SWIDTH 923 0
DWIDTH 12 0
BBX 12 18 0 -4
BITMAP
0000
0000
0800
0800
0800
0800
0800
0800
0800
0800
0800
0800
0800
0e00
0000
0000
0000
0000
ENDCHAR
STARTCHAR C155
ENCODING 109
SWIDTH 923 0
DWIDTH 12 0
BBX 12 18 0 -4
BITMAP
0000
0000
0000
0000
8200
8400
8000
9100
8880
8880
8880
8880
8880
eee0
0000
0000
0000
0000
ENDCHAR
STARTCHAR C156
ENCODING 110
SWIDTH 923 0
DWIDTH 12 0
BBX 12 18 0 -4
BITMAP
0000
0000
0000
0000
8000
8000
8e00
9100
8100
8100
8100
8100
8100
e1c0
0000
0000
0000
0000
ENDCHAR
STARTCHAR C157
ENCODING 111
SWIDTH 923 0
DWIDTH 12 0
BBX 12 18 0 -4
BITMAP
0000
0000
0000
0000
0000
0000
0e00
9100
8100
8100
8200
4000
2080
1f00
0000
0000
0000
0000
ENDCHAR
STARTCHAR C160
ENCODING 112
SWIDTH 923 0
DWIDTH 12 0
BBX 12 18 0 -4
BITMAP
0000
0000
0000
0000
0000
8000
8e00
9100
8100
8100
8200
8000
9080
8f00
8000
8000
8000
e000
ENDCHAR
STARTCHAR C161
ENCODING 113
SWIDTH 923 0
DWIDTH 12 0
BBX 12 18 0 -4
BITMAP
0000
0000
0000
0000
0100
0000
0e00
9100
8100
8100
8200
4000
2100
1f00
0100
0100
0100
01c0
ENDCHAR
STARTCHAR C162
ENCODING 114
SWIDTH 923 0
DWIDTH 12 0
BBX 12 18 0 -4
BITMAP
0000
0000
0000
0000
8000
8000
8e80
9100
8000
8000
8000
8000
8000
e000
0000
0000
0000
0000
ENDCHAR
STARTCHAR C163
ENCODING 115
SWIDTH 923 0
DWIDTH 12 0
BBX 12 18 0 -4
BITMAP
0000
0000
0000
0000
0000
4e80
9100
8000
4000
3c00
0200
8000
4080
3f00
0000
0000
0000
0000
ENDCHAR
STARTCHAR C164
ENCODING 116
SWIDTH 923 0
DWIDTH 12 0
BBX 12 18 0 -4
BITMAP
0000
0000
1000
1000
4000
4000
7380
1000
1000
1000
1100
1000
1080
0f00
0000
0000
0000
0000
ENDCHAR
STARTCHAR C165
ENCODING 117
SWIDTH 923 0
DWIDTH 12 0
BBX 12 18 0 -4
BITMAP
0000
0000
0000
0000
8100
8100
8100
8100
8100
8100
4200
4000
2100
1ec0
0000
0000
0000
0000
ENDCHAR
STARTCHAR C166
ENCODING 118
SWIDTH 923 0
DWIDTH 12 0
BBX 12 18 0 -4
BITMAP
0000
0000
0000
0000
4100
4100
4100
2200
2200
2200
1000
1000
1000
0e00
0000
0000
0000
0000
ENDCHAR
STARTCHAR C167
ENCODING 119
SWIDTH 923 0
DWIDTH 12 0
BBX 12 18 0 -4
BITMAP
0000
0000
0000
0000
8040
8840
8880
8080
4000
4200
4200
2100
2100
2080
0000
0000
0000
0000
ENDCHAR
STARTCHAR C170
ENCODING 120
SWIDTH 923 0
DWIDTH 12 0
BBX 12 18 0 -4
BITMAP
0000
0000
0000
0000
8080
4100
2200
1000
0800
1000
2000
4200
8100
e0c0
0000
0000
0000
0000
ENDCHAR
STARTCHAR C171
ENCODING 121
SWIDTH 923 0
DWIDTH 12 0
BBX 12 18 0 -4
BITMAP
0000
0000
0000
0000
8100
8100
8100
8100
8100
8100
8200
4000
2100
1f00
0200
0000
4040
3f80
ENDCHAR
STARTCHAR C172
ENCODING 122
SWIDTH 923 0
DWIDTH 12 0
BBX 12 18 0 -4
BITMAP
0000
0000
0000
0000
8000
8000
fc00
0000
0180
0600
1800
8000
8000
ff80
0000
0000
0000
0000
ENDCHAR
STARTCHAR C173
ENCODING 123
SWIDTH 923 0
DWIDTH 12 0
BBX 12 18 0 -4
BITMAP
0000
0800
1180
1200
1000
1000
1000
0000
2000
1000
1000
1000
1000
0800
0780
0000
0000
0000
ENDCHAR
STARTCHAR C174
ENCODING 124
SWIDTH 923 0
DWIDTH 12 0
BBX 12 18 0 -4
BITMAP
0800
0800
0800
0800
0800
0800
0800
0800
0800
0800
0800
0800
0800
0800
0e00
0000
0000
0000
ENDCHAR
STARTCHAR C175
ENCODING 125
SWIDTH 923 0
DWIDTH 12 0
BBX 12 18 0 -4
BITMAP
1000
1000
1800
0400
0200
0200
0200
0100
0040
0200
0200
0400
1000
1100
1e00
0000
0000
0000
ENDCHAR
STARTCHAR C176
ENCODING 126
SWIDTH 923 0
DWIDTH 12 0
BBX 12 18 0 -4
BITMAP
0000
2040
4080
8c00
4200
21c0
0000
0000
0000
0000
0000
0000
0000
0000
0000
0000
0000
0000
ENDCHAR
STARTCHAR C241
ENCODING 161
SWIDTH 923 0
DWIDTH 12 0
BBX 12 18 0 -4
BITMAP
0800
0800
0e00
0000
0800
0800
0800
0800
0800
0800
0800
0800
0800
0800
0e00
0000
0000
0000
ENDCHAR
STARTCHAR C242
ENCODING 162
SWIDTH 923 0
DWIDTH 12 0
BBX 12 18 0 -4
BITMAP
0400
0400
2000
4000
4c80
9460
8400
8400
8400
8400
4400
4000
2040
1c80
0400
0700
0000
0000
ENDCHAR
STARTCHAR C243
ENCODING 163
SWIDTH 923 0
DWIDTH 12 0
BBX 12 18 0 -4
BITMAP
1000
2000
2600
2100
2000
8000
8000
e600
2000
2000
0000
8000
9020
6fc0
0000
0000
0000
0000
ENDCHAR
STARTCHAR C244
ENCODING 164
SWIDTH 923 0
DWIDTH 12 0
BBX 12 18 0 -4
BITMAP
0000
8020
4040
0000
0700
4880
4080
4080
4100
0000
1080
af50
4020
0000
0000
0000
0000
0000
ENDCHAR
STARTCHAR C245
ENCODING 165
SWIDTH 923 0
DWIDTH 12 0
BBX 12 18 0 -4
BITMAP
0000
8080
8100
4100
2200
2000
1000
8000
8000
f9e0
0800
0800
0800
0e00
0000
0000
0000
0000
ENDCHAR
STARTCHAR C246
ENCODING 166
SWIDTH 923 0
DWIDTH 12 0
BBX 12 18 0 -4
BITMAP
0800
0800
0800
0800
0800
0800
0e00
0000
0800
0800
0800
0800
0800
0800
0e00
0000
0000
0000
ENDCHAR
STARTCHAR C247
ENCODING 167
SWIDTH 923 0
DWIDTH 12 0
BBX 12 18 0 -4
BITMAP
0000
0000
4c00
4280
2100
4000
4c00
4200
4000
2000
1e00
0400
4080
2100
1e00
0000
0000
0000
ENDCHAR
STARTCHAR C250
ENCODING 168
SWIDTH 923 0
DWIDTH 12 0
BBX 12 18 0 -4
BITMAP
2200
3b80
0000
0000
0000
0000
0000
0000
0000
0000
0000
0000
0000
0000
0000
0000
0000
0000
ENDCHAR
STARTCHAR C251
ENCODING 169
SWIDTH 923 0
DWIDTH 12 0
BBX 12 18 0 -4
BITMAP
0000
0000
1f00
a080
8040
9020
a720
a020
a020
9140
8e00
4020
20c0
1f00
0000
0000
0000
0000
ENDCHAR
STARTCHAR C252
ENCODING 170
SWIDTH 923 0
DWIDTH 12 0
BBX 12 18 0 -4
BITMAP
4000
7e00
0100
2000
4f00
4100
6000
1ec0
0000
4000
7fc0
0000
0000
0000
0000
0000
0000
0000
ENDCHAR
STARTCHAR C253
ENCODING 171
SWIDTH 923 0
DWIDTH 12 0
BBX 12 18 0 -4
BITMAP
0000
1080
1080
2100
2100
4200
4200
8400
4200
4200
2100
2100
1080
1ce0
0000
0000
0000
0000
ENDCHAR
STARTCHAR C254
ENCODING 172
SWIDTH 923 0
DWIDTH 12 0
BBX 12 18 0 -4
BITMAP
0000
0000
0000
8000
8000
ff80
0080
0080
0080
0080
00e0
0000
0000
0000
0000
0000
0000
0000
ENDCHAR
STARTCHAR C255
ENCODING 173
SWIDTH 923 0
DWIDTH 12 0
BBX 12 18 0 -4
BITMAP
0000
0000
0000
0000
0000
0000
0000
2000
2000
3f80
0000
0000
0000
0000
0000
0000
0000
0000
ENDCHAR
STARTCHAR C256
ENCODING 174
SWIDTH 923 0
DWIDTH 12 0
BBX 12 18 0 -4
BITMAP
0000
0000
1f00
a080
9040
9620
9220
9020
9420
9240
9900
4020
20c0
1f00
0000
0000
0000
0000
ENDCHAR
STARTCHAR C257
ENCODING 175
SWIDTH 923 0
DWIDTH 12 0
BBX 12 18 0 -4
BITMAP
2000
3f80
0000
0000
0000
0000
0000
0000
0000
0000
0000
0000
0000
0000
0000
0000
0000
0000
ENDCHAR
STARTCHAR C260
ENCODING 176
SWIDTH 923 0
DWIDTH 12 0
BBX 12 18 0 -4
BITMAP
0000
1000
2000
2600
2200
2000
1080
0f00
0000
0000
0000
0000
0000
0000
0000
0000
0000
0000
ENDCHAR
STARTCHAR C261
ENCODING 177
SWIDTH 923 0
DWIDTH 12 0
BBX 12 18 0 -4
BITMAP
0000
0800
0800
0800
4000
4000
79c0
0800
0800
0e00
0000
4000
4000
7fc0
0000
0000
0000
0000
ENDCHAR
STARTCHAR C262
ENCODING 178
SWIDTH 923 0
DWIDTH 12 0
BBX 12 18 0 -4
BITMAP
0000
0000
2c00
3200
0000
0180
2000
2000
3f80
0000
0000
0000
0000
0000
0000
0000
0000
0000
ENDCHAR
STARTCHAR C263
ENCODING 179
SWIDTH 923 0
DWIDTH 12 0
BBX 12 18 0 -4
BITMAP
0000
4000
2c00
3200
0000
1000
1c00
0000
4100
3e00
0000
0000
0000
0000
0000
0000
0000
0000
ENDCHAR
STARTCHAR C264
ENCODING 180
SWIDTH 923 0
DWIDTH 12 0
BBX 12 18 0 -4
BITMAP
0800
1000
1c00
0000
0000
0000
0000
0000
0000
0000
0000
0000
0000
0000
0000
0000
0000
0000
ENDCHAR
STARTCHAR C265
ENCODING 181
SWIDTH 923 0
DWIDTH 12 0
BBX 12 18 0 -4
BITMAP
0000
0000
0000
0000
1040
1040
1040
1080
2080
2080
2100
4000
4080
4f60
8000
8000
e000
0000
ENDCHAR
STARTCHAR C266
ENCODING 182
SWIDTH 923 0
DWIDTH 12 0
BBX 12 18 0 -4
BITMAP
0000
0000
4000
8320
8100
8100
8100
4100
3100
1100
1100
1100
1100
1dc0
0000
0000
0000
0000
ENDCHAR
STARTCHAR C267
ENCODING 183
SWIDTH 923 0
DWIDTH 12 0
BBX 12 18 0 -4
BITMAP
0000
0000
0000
0000
0000
0000
0800
0800
0e00
0000
0000
0000
0000
0000
0000
0000
0000
0000
ENDCHAR
STARTCHAR C270
ENCODING 184
SWIDTH 923 0
DWIDTH 12 0
BBX 12 18 0 -4
BITMAP
0000
0000
0000
0000
0000
0000
0000
0000
0000
0000
0000
0800
0800
0c00
0400
0100
0e00
0000
ENDCHAR
STARTCHAR C271
ENCODING 185
SWIDTH 923 0
DWIDTH 12 0
BBX 12 18 0 -4
BITMAP
0800
1000
1000
0800
0800
0800
0e00
0000
0000
0000
0000
0000
0000
0000
0000
0000
0000
0000
ENDCHAR
STARTCHAR C272
ENCODING 186
SWIDTH 923 0
DWIDTH 12 0
BBX 12 18 0 -4
BITMAP
0000
1000
2000
2600
2200
2000
1080
0f00
0000
2000
3fc0
0000
0000
0000
0000
0000
0000
0000
ENDCHAR
STARTCHAR C273
ENCODING 187
SWIDTH 923 0
DWIDTH 12 0
BBX 12 18 0 -4
BITMAP
0000
4200
4200
2100
2100
1080
1080
0840
1080
1080
2100
2100
4200
7380
0000
0000
0000
0000
ENDCHAR
STARTCHAR C274
ENCODING 188
SWIDTH 923 0
DWIDTH 12 0
BBX 12 18 0 -4
BITMAP
4180
8100
8200
4200
4000
4000
7000
0080
2480
2400
4400
4790
8080
e0e0
0000
0000
0000
0000
ENDCHAR
STARTCHAR C275
ENCODING 189
SWIDTH 923 0
DWIDTH 12 0
BBX 12 18 0 -4
BITMAP
4180
8100
8200
4200
4000
4000
7000
0580
2640
2000
4030
4400
8400
e7f0
0000
0000
0000
0000
ENDCHAR
STARTCHAR C276
ENCODING 190
SWIDTH 923 0
DWIDTH 12 0
BBX 12 18 0 -4
BITMAP
4180
8100
8200
4200
4000
4000
7580
0640
2000
2100
41c0
4400
8410
e3e0
0000
0000
0000
0000
ENDCHAR
STARTCHAR C277
ENCODING 191
SWIDTH 923 0
DWIDTH 12 0
BBX 12 18 0 -4
BITMAP
0800
0800
0e00
0000
0800
0800
0800
0000
2000
4000
4000
4000
2080
1f00
0000
0000
0000
0000
ENDCHAR
STARTCHAR C300
ENCODING 192
SWIDTH 923 0
DWIDTH 12 0
BBX 12 18 0 -4
BITMAP
0800
0400
0300
0000
0800
0800
1000
1200
2300
2000
4000
4f00
8080
e0e0
0000
0000
0000
0000
ENDCHAR
STARTCHAR C301
ENCODING 193
SWIDTH 923 0
DWIDTH 12 0
BBX 12 18 0 -4
BITMAP
0400
0800
0c00
0000
0800
0800
1000
1200
2300
2000
4000
4f00
8080
e0e0
0000
0000
0000
0000
ENDCHAR
STARTCHAR C302
ENCODING 194
SWIDTH 923 0
DWIDTH 12 0
BBX 12 18 0 -4
BITMAP
4400
2a80
1100
0000
0800
0800
1000
1200
2300
2000
4000
4f00
8080
e0e0
0000
0000
0000
0000
ENDCHAR
STARTCHAR C303
ENCODING 195
SWIDTH 923 0
DWIDTH 12 0
BBX 12 18 0 -4
BITMAP
0000
2c80
1300
0000
0800
0800
1000
1200
2300
2000
4000
4f00
8080
e0e0
0000
0000
0000
0000
ENDCHAR
STARTCHAR C304
ENCODING 196
SWIDTH 923 0
DWIDTH 12 0
BBX 12 18 0 -4
BITMAP
2200
3b80
0000
0400
0800
0800
1000
1200
2300
2000
4000
4f00
8080
e0e0
0000
0000
0000
0000
ENDCHAR
STARTCHAR C305
ENCODING 197
SWIDTH 923 0
DWIDTH 12 0
BBX 12 18 0 -4
BITMAP
1400
1100
0e00
0000
0800
0800
1000
1200
2300
2000
4000
4f00
8080
e0e0
0000
0000
0000
0000
ENDCHAR
STARTCHAR C306
ENCODING 198
SWIDTH 923 0
DWIDTH 12 0
BBX 12 18 0 -4
BITMAP
0000
0800
1000
10e0
2000
2400
2400
4400
40c0
4000
9c00
8400
8400
e7e0
0000
0000
0000
0000
ENDCHAR
STARTCHAR C307
ENCODING 199
SWIDTH 923 0
DWIDTH 12 0
BBX 12 18 0 -4
BITMAP
0000
0000
2000
4700
48e0
9000
8000
8000
8000
8000
4000
4000
2040
1980
0800
0800
1200
0c00
ENDCHAR
STARTCHAR C320
ENCODING 208
SWIDTH 923 0
DWIDTH 12 0
BBX 12 18 0 -4
BITMAP
0000
4000
4000
4e00
4100
4080
8080
8080
cc80
4080
4100
4000
4080
7f00
0000
0000
0000
0000
ENDCHAR
STARTCHAR C321
ENCODING 209
SWIDTH 923 0
DWIDTH 12 0
BBX 12 18 0 -4
BITMAP
0000
5900
2600
8080
8080
8080
9080
8880
8880
8480
8400
8200
8200
e1e0
0000
0000
0000
0000
ENDCHAR
STARTCHAR C327
ENCODING 215
SWIDTH 923 0
DWIDTH 12 0
BBX 12 18 0 -4
BITMAP
0000
0000
0000
8080
4100
2200
1000
0800
1000
2000
4200
8100
e0c0
0000
0000
0000
0000
0000
ENDCHAR
STARTCHAR C330
ENCODING 216
SWIDTH 923 0
DWIDTH 12 0
BBX 12 18 0 -4
BITMAP
0000
0080
2000
4600
4a00
9400
8480
8880
9080
9080
4100
4000
2040
4f80
8000
6000
0000
0000
ENDCHAR
STARTCHAR C335
ENCODING 221
SWIDTH 923 0
DWIDTH 12 0
BBX 12 18 0 -4
BITMAP
0800
1000
1800
8100
4100
2200
2000
1000
0800
0800
0800
0800
0800
0e00
0000
0000
0000
0000
ENDCHAR
STARTCHAR C336
ENCODING 222
SWIDTH 923 0
DWIDTH 12 0
BBX 12 18 0 -4
BITMAP
0000
8000
8000
8000
9e00
8100
8100
8000
8000
8000
8080
9f00
8000
e000
0000
0000
0000
0000
ENDCHAR
STARTCHAR C337
ENCODING 223
SWIDTH 923 0
DWIDTH 12 0
BBX 12 18 0 -4
BITMAP
0000
0000
4000
8e00
9100
8100
8000
8000
8e00
8100
8100
8000
8040
cf80
0000
0000
0000
0000
ENDCHAR
STARTCHAR C340
ENCODING 224
SWIDTH 923 0
DWIDTH 12 0
BBX 12 18 0 -4
BITMAP
2000
1000
0c00
8000
8000
fc00
0200
4000
8000
9e00
8200
8000
4200
3dc0
0000
0000
0000
0000
ENDCHAR
STARTCHAR C341
ENCODING 225
SWIDTH 923 0
DWIDTH 12 0
BBX 12 18 0 -4
BITMAP
0400
0800
0c00
8000
8000
fc00
0200
4000
8000
9e00
8200
8000
4200
3dc0
0000
0000
0000
0000
ENDCHAR
STARTCHAR C342
ENCODING 226
SWIDTH 923 0
DWIDTH 12 0
BBX 12 18 0 -4
BITMAP
8800
5500
2200
8000
8000
fc00
0200
4000
8000
9e00
8200
8000
4200
3dc0
0000
0000
0000
0000
ENDCHAR
STARTCHAR C343
ENCODING 227
SWIDTH 923 0
DWIDTH 12 0
BBX 12 18 0 -4
BITMAP
0000
5900
2600
8000
8000
fc00
0200
4000
8000
9e00
8200
8000
4200
3dc0
0000
0000
0000
0000
ENDCHAR
STARTCHAR C344
ENCODING 228
SWIDTH 923 0
DWIDTH 12 0
BBX 12 18 0 -4
BITMAP
4400
7700
0000
8000
8000
fc00
0200
4000
8000
9e00
8200
8000
4200
3dc0
0000
0000
0000
0000
ENDCHAR
STARTCHAR C345
ENCODING 229
SWIDTH 923 0
DWIDTH 12 0
BBX 12 18 0 -4
BITMAP
2800
2200
1c00
8000
8000
fc00
0200
4000
8000
9e00
8200
8000
4200
3dc0
0000
0000
0000
0000
ENDCHAR
STARTCHAR C346
ENCODING 230
SWIDTH 923 0
DWIDTH 12 0
BBX 12 18 0 -4
BITMAP
0000
0000
0000
8000
8000
f180
0840
4000
8000
99e0
8800
8000
4a20
35c0
0000
0000
0000
0000
ENDCHAR
STARTCHAR C347
ENCODING 231
SWIDTH 923 0
DWIDTH 12 0
BBX 12 18 0 -4
BITMAP
0000
0000
0000
0000
0000
0040
0e80
9100
8000
8000
8000
4000
2080
1900
0800
0800
1200
0c00
ENDCHAR
STARTCHAR C360
ENCODING 240
SWIDTH 923 0
DWIDTH 12 0
BBX 12 18 0 -4
BITMAP
2080
1100
0400
3a00
0200
0000
0e00
9100
8100
8100
8200
4000
2100
1ec0
0000
0000
0000
0000
ENDCHAR
STARTCHAR C361
ENCODING 241
SWIDTH 923 0
DWIDTH 12 0
BBX 12 18 0 -4
BITMAP
2100
4000
2c40
1380
8000
8000
8e00
9100
8100
8100
8100
8100
8100
e1c0
0000
0000
0000
0000
ENDCHAR
STARTCHAR C367
ENCODING 247
SWIDTH 923 0
DWIDTH 12 0
BBX 12 18 0 -4
BITMAP
0000
0000
0000
0800
0800
0e00
0000
4000
4000
7fc0
0000
0800
0800
0e00
0000
0000
0000
0000
ENDCHAR
STARTCHAR C370
ENCODING 248
SWIDTH 923 0
DWIDTH 12 0
BBX 12 18 0 -4
BITMAP
0000
0000
0080
0100
0000
0000
0c00
9400
8900
8900
8200
4000
6080
4f00
8000
4000
0000
0000
ENDCHAR
STARTCHAR C375
ENCODING 253
SWIDTH 923 0
DWIDTH 12 0
BBX 12 18 0 -4
BITMAP
0800
1000
1800
0000
8100
8100
8100
8100
8100
8100
8200
4000
2100
1f00
0200
0000
4040
3f80
ENDCHAR
STARTCHAR C376
ENCODING 254
SWIDTH 923 0
DWIDTH 12 0
BBX 12 18 0 -4
BITMAP
0000
8000
8000
8000
8e00
9100
8100
8100
8200
8000
9080
8f00
8000
e000
0000
0000
0000
0000
ENDCHAR
STARTCHAR C377
ENCODING 255
SWIDTH 923 0
DWIDTH 12 0
BBX 12 18 0 -4
BITMAP
4400
4400
7700
0000
8100
8100
8100
8100
8100
8100
8200
4000
2100
1f00
0200
0000
4040
3f80
ENDCHAR
ENDFONT
